<svg width="24" height="24" viewBox="0 0 24 24" fill="none" xmlns="http://www.w3.org/2000/svg">
<path fill-rule="evenodd" clip-rule="evenodd" d="M12.0001 2.39999C10.727 2.39999 9.50612 2.90571 8.60595 3.80588C7.70577 4.70606 7.20006 5.92695 7.20006 7.19999V8.39999H6.00006C5.70464 8.39997 5.4196 8.50892 5.19951 8.70599C4.97942 8.90305 4.83975 9.17437 4.80726 9.46799L3.60726 20.268C3.5887 20.4357 3.60571 20.6054 3.65719 20.7661C3.70867 20.9268 3.79346 21.0748 3.90602 21.2005C4.01858 21.3262 4.15639 21.4268 4.31044 21.4956C4.46449 21.5644 4.63133 21.6 4.80006 21.6H19.2001C19.3688 21.6 19.5356 21.5644 19.6897 21.4956C19.8437 21.4268 19.9815 21.3262 20.0941 21.2005C20.2067 21.0748 20.2914 20.9268 20.3429 20.7661C20.3944 20.6054 20.4114 20.4357 20.3929 20.268L19.1929 9.46799C19.1604 9.17437 19.0207 8.90305 18.8006 8.70599C18.5805 8.50892 18.2955 8.39997 18.0001 8.39999H16.8001V7.19999C16.8001 5.92695 16.2943 4.70606 15.3942 3.80588C14.494 2.90571 13.2731 2.39999 12.0001 2.39999ZM14.4001 8.39999V7.19999C14.4001 6.56347 14.1472 5.95302 13.6971 5.50294C13.247 5.05285 12.6366 4.79999 12.0001 4.79999C11.3635 4.79999 10.7531 5.05285 10.303 5.50294C9.85292 5.95302 9.60006 6.56347 9.60006 7.19999V8.39999H14.4001ZM7.20006 12C7.20006 11.6817 7.32649 11.3765 7.55153 11.1515C7.77657 10.9264 8.0818 10.8 8.40006 10.8C8.71832 10.8 9.02354 10.9264 9.24859 11.1515C9.47363 11.3765 9.60006 11.6817 9.60006 12C9.60006 12.3183 9.47363 12.6235 9.24859 12.8485C9.02354 13.0736 8.71832 13.2 8.40006 13.2C8.0818 13.2 7.77657 13.0736 7.55153 12.8485C7.32649 12.6235 7.20006 12.3183 7.20006 12ZM15.6001 10.8C15.2818 10.8 14.9766 10.9264 14.7515 11.1515C14.5265 11.3765 14.4001 11.6817 14.4001 12C14.4001 12.3183 14.5265 12.6235 14.7515 12.8485C14.9766 13.0736 15.2818 13.2 15.6001 13.2C15.9183 13.2 16.2235 13.0736 16.4486 12.8485C16.6736 12.6235 16.8001 12.3183 16.8001 12C16.8001 11.6817 16.6736 11.3765 16.4486 11.1515C16.2235 10.9264 15.9183 10.8 15.6001 10.8Z" fill="#29667E"/>
</svg>
