<svg width="65" height="40" viewBox="0 0 65 40" fill="none" xmlns="http://www.w3.org/2000/svg">
<path d="M65 34.8283C65 36.6386 65 37.5437 64.6491 38.2351C64.3404 38.8433 63.8478 39.3378 63.242 39.6477C62.5532 40 61.6516 40 59.8483 40L5.15171 40C3.34845 40 2.44681 40 1.75806 39.6477C1.15221 39.3378 0.659645 38.8433 0.350945 38.2351C7.8433e-06 37.5437 7.92212e-06 36.6385 8.07977e-06 34.8283L1.06624e-05 5.17172C1.082e-05 3.36145 1.08989e-05 2.45632 0.350948 1.76488C0.659648 1.15668 1.15221 0.662203 1.75806 0.352308C2.44682 5.95427e-06 3.34845 6.0334e-06 5.15171 6.19166e-06L59.8483 1.0992e-05C61.6516 1.11502e-05 62.5532 1.12294e-05 63.242 0.352314C63.8478 0.662208 64.3404 1.15669 64.6491 1.76489C65 2.45632 65 3.36146 65 5.17173L65 34.8283Z" fill="#5560B4"/>
</svg>
