<svg width="320" height="396" viewBox="0 0 320 396" fill="none" xmlns="http://www.w3.org/2000/svg">
<path d="M50.5 372C48.2909 372 46.5 373.791 46.5 376C46.5 378.209 48.2909 380 50.5 380C52.7092 380 54.5 378.209 54.5 376C54.5 373.791 52.7092 372 50.5 372ZM35 299.5L34.2515 299.453L34.2473 299.521L34.2552 299.588L35 299.5ZM59.0001 84L59.7467 83.9293H59.7467L59.0001 84ZM49.8346 201.154C48.162 204.371 46.5113 209.784 44.9368 216.617C43.3576 223.471 41.841 231.817 40.4555 240.941C37.6843 259.19 35.4321 280.587 34.2515 299.453L35.7486 299.547C36.9265 280.723 39.1743 259.37 41.9385 241.166C43.3206 232.064 44.8306 223.758 46.3985 216.954C47.9711 210.13 49.5881 204.879 51.1654 201.846L49.8346 201.154ZM34.2552 299.588C38.2574 333.607 42.1377 352.772 45.0261 363.446C46.4704 368.784 47.6698 372.01 48.518 373.915C48.9424 374.867 49.2807 375.493 49.5202 375.89C49.6401 376.088 49.7357 376.23 49.8056 376.327C49.8405 376.375 49.8691 376.413 49.8912 376.44C49.9022 376.454 49.9116 376.466 49.9194 376.475C49.9232 376.479 49.9267 376.484 49.9297 376.487C49.9313 376.489 49.9327 376.491 49.934 376.492C49.9347 376.493 49.9356 376.494 49.9359 376.494C49.9368 376.495 49.9377 376.496 50.5 376C51.0624 375.504 51.0632 375.505 51.064 375.506C51.0642 375.506 51.0649 375.507 51.0654 375.507C51.0662 375.508 51.067 375.509 51.0676 375.51C51.0688 375.511 51.0695 375.512 51.0698 375.512C51.0703 375.513 51.0688 375.511 51.0654 375.507C51.0585 375.498 51.044 375.48 51.0221 375.449C50.9782 375.388 50.9049 375.281 50.804 375.114C50.6022 374.78 50.292 374.211 49.8883 373.304C49.0803 371.49 47.9047 368.341 46.474 363.054C43.6124 352.478 39.7427 333.393 35.7449 299.412L34.2552 299.588ZM35 0C34.3828 0.425993 34.3826 0.425839 34.3826 0.425787C34.3827 0.425906 34.3827 0.425957 34.3829 0.426196C34.3832 0.426674 34.3838 0.427564 34.3847 0.428864C34.3865 0.431464 34.3894 0.435709 34.3934 0.441599C34.4014 0.453379 34.4139 0.471742 34.4306 0.496699C34.4641 0.546614 34.5147 0.622907 34.5816 0.725674C34.7154 0.931209 34.9141 1.24264 35.1699 1.66074C35.6816 2.49694 36.4219 3.75982 37.3288 5.45554C39.1425 8.84696 41.6228 13.9699 44.2734 20.8737C49.5745 34.6808 55.5582 55.6142 58.2534 84.0707L59.7467 83.9293C57.0381 55.3322 51.0218 34.2656 45.6738 20.3361C42.9999 13.3716 40.4934 8.1921 38.6515 4.74813C37.7305 3.02617 36.9758 1.73813 36.4494 0.877831C36.1862 0.447683 35.98 0.124472 35.8388 -0.0925745C35.7681 -0.201098 35.7137 -0.28308 35.6765 -0.338617C35.6579 -0.366386 35.6435 -0.387544 35.6336 -0.402102C35.6287 -0.409382 35.6248 -0.415011 35.6221 -0.418993C35.6208 -0.420983 35.6197 -0.422562 35.6189 -0.423729C35.6185 -0.424312 35.6181 -0.424878 35.6179 -0.42517C35.6176 -0.425633 35.6173 -0.425993 35 0ZM58.2534 84.0707C60.8295 111.27 60.3303 137.472 58.3765 158.43C57.3996 168.909 56.0598 178.069 54.5615 185.381C53.0591 192.713 51.4089 198.126 49.8346 201.154L51.1654 201.846C52.8411 198.624 54.5237 193.037 56.031 185.682C57.5424 178.306 58.8892 169.091 59.87 158.57C61.8317 137.528 62.3325 111.23 59.7467 83.9293L58.2534 84.0707Z" fill="#191925"/>
<rect x="7.62939e-06" y="56" width="96" height="53" rx="8" fill="#D4D8E2"/>
<rect x="7.62939e-06" y="113" width="96" height="12" rx="6" fill="#D4D8E2"/>
<rect x="7.62939e-06" y="129" width="96" height="4" rx="2" fill="#D4D8E2"/>
<rect x="7.62939e-06" y="137" width="96" height="16" rx="8" fill="#D4D8E2"/>
<rect x="7.62939e-06" y="157" width="96" height="64" rx="8" fill="#D4D8E2"/>
<rect y="225" width="96" height="136" rx="8" fill="#D4D8E2"/>
<path d="M160 388C157.791 388 156 389.791 156 392C156 394.209 157.791 396 160 396C162.209 396 164 394.209 164 392C164 389.791 162.209 388 160 388ZM159.25 -8L159.25 392L160.75 392L160.75 -8L159.25 -8Z" fill="#191925"/>
<rect x="112" y="72" width="96" height="34" rx="8" fill="#ABAFBA"/>
<rect x="112" y="110" width="96" height="31" rx="8" fill="#ABAFBA"/>
<rect x="112" y="145" width="96" height="4" rx="2" fill="#ABAFBA"/>
<rect x="112" y="153" width="96" height="16" rx="8" fill="#ABAFBA"/>
<rect x="112" y="173" width="96" height="19" rx="8" fill="#ABAFBA"/>
<rect x="112" y="198" width="96" height="179" rx="8" fill="#ABAFBA"/>
<path d="M264.18 193.5L263.454 193.69L264.18 193.5ZM272 291.5L272.75 291.476L272.751 291.51L272.749 291.544L272 291.5ZM264.18 364C266.389 364 268.18 365.791 268.18 368C268.18 370.209 266.389 372 264.18 372C261.971 372 260.18 370.209 260.18 368C260.18 365.791 261.971 364 264.18 364ZM259.891 76L259.142 75.9642L259.891 76ZM264.905 193.31C266.566 199.639 268.226 214.79 269.621 232.996C271.019 251.234 272.154 272.621 272.75 291.476L271.25 291.524C270.656 272.689 269.521 251.325 268.126 233.111C266.728 214.865 265.073 199.861 263.454 193.69L264.905 193.31ZM272.749 291.544C270.73 325.554 268.774 344.7 267.319 355.351C266.592 360.677 265.99 363.887 265.566 365.774C265.354 366.717 265.186 367.334 265.068 367.721C265.009 367.914 264.962 368.052 264.928 368.144C264.911 368.191 264.897 368.227 264.887 368.253C264.882 368.266 264.877 368.277 264.874 368.285C264.872 368.29 264.87 368.293 264.869 368.297C264.868 368.298 264.867 368.3 264.867 368.301C264.866 368.302 264.866 368.303 264.866 368.303C264.865 368.304 264.865 368.305 264.18 368C263.495 367.695 263.494 367.696 263.494 367.697C263.494 367.697 263.493 367.698 263.493 367.698C263.493 367.699 263.493 367.7 263.492 367.7C263.492 367.701 263.492 367.702 263.492 367.702C263.492 367.702 263.493 367.699 263.495 367.694C263.499 367.684 263.507 367.664 263.518 367.631C263.542 367.567 263.581 367.455 263.633 367.283C263.738 366.94 263.897 366.361 264.102 365.445C264.514 363.613 265.11 360.448 265.833 355.149C267.28 344.55 269.234 325.446 271.251 291.456L272.749 291.544ZM272 -8C272.708 -7.75338 272.708 -7.75348 272.708 -7.75347C272.708 -7.75333 272.708 -7.75321 272.708 -7.75293C272.708 -7.75237 272.708 -7.7514 272.707 -7.75002C272.706 -7.74725 272.705 -7.74284 272.703 -7.73678C272.698 -7.72466 272.692 -7.70595 272.683 -7.68064C272.666 -7.63001 272.641 -7.55299 272.607 -7.44946C272.539 -7.2424 272.438 -6.92933 272.308 -6.50948C272.049 -5.66977 271.674 -4.40293 271.216 -2.70278C270.298 0.697519 269.044 5.83115 267.704 12.7475C265.025 26.5802 262.002 47.5445 260.64 76.0358L259.142 75.9642C260.507 47.4019 263.538 26.3662 266.232 12.4623C267.578 5.51035 268.84 0.341533 269.767 -3.09355C270.231 -4.81108 270.61 -6.09516 270.875 -6.95195C271.007 -7.38035 271.111 -7.70192 271.181 -7.91744C271.217 -8.0252 271.244 -8.10645 271.263 -8.16128C271.272 -8.1887 271.279 -8.20951 271.284 -8.22373C271.286 -8.23084 271.288 -8.2363 271.289 -8.24011C271.29 -8.24202 271.291 -8.24351 271.291 -8.2446C271.291 -8.24514 271.291 -8.24565 271.291 -8.24592C271.292 -8.24632 271.292 -8.24662 272 -8ZM260.64 76.0358C259.339 103.26 259.592 129.486 260.578 150.465C261.566 171.473 263.288 187.147 264.905 193.31L263.454 193.69C261.792 187.353 260.067 171.527 259.08 150.535C258.091 129.514 257.839 103.24 259.142 75.9642L260.64 76.0358Z" fill="#191925"/>
<rect x="224" y="48" width="96" height="120" rx="8" fill="#83BFD8"/>
<rect x="224" y="172" width="96" height="12" rx="6" fill="#83BFD8"/>
<rect x="224" y="188" width="96" height="4" rx="2" fill="#83BFD8"/>
<rect x="224" y="196" width="96" height="16" rx="8" fill="#83BFD8"/>
<rect x="224" y="216" width="96" height="64" rx="8" fill="#83BFD8"/>
<rect x="224" y="284" width="96" height="69" rx="8" fill="#83BFD8"/>
</svg>
