<svg width="60" height="36" viewBox="0 0 60 36" fill="none" xmlns="http://www.w3.org/2000/svg">
<rect width="60" height="36" rx="10" fill="#5560B4"/>
<path fill-rule="evenodd" clip-rule="evenodd" d="M30 11C30.2652 11 30.5196 11.1054 30.7071 11.2929C30.8946 11.4804 31 11.7348 31 12V17H36C36.2652 17 36.5196 17.1054 36.7071 17.2929C36.8946 17.4804 37 17.7348 37 18C37 18.2652 36.8946 18.5196 36.7071 18.7071C36.5196 18.8946 36.2652 19 36 19H31V24C31 24.2652 30.8946 24.5196 30.7071 24.7071C30.5196 24.8946 30.2652 25 30 25C29.7348 25 29.4804 24.8946 29.2929 24.7071C29.1054 24.5196 29 24.2652 29 24V19H24C23.7348 19 23.4804 18.8946 23.2929 18.7071C23.1054 18.5196 23 18.2652 23 18C23 17.7348 23.1054 17.4804 23.2929 17.2929C23.4804 17.1054 23.7348 17 24 17H29V12C29 11.7348 29.1054 11.4804 29.2929 11.2929C29.4804 11.1054 29.7348 11 30 11Z" fill="white"/>
</svg>
