<svg width="20" height="23" viewBox="0 0 20 23" fill="none" xmlns="http://www.w3.org/2000/svg">
<path d="M10 -3.05176e-05C7.72665 -3.05176e-05 5.5464 0.903056 3.9389 2.51056C2.3314 4.11806 1.42831 6.29831 1.42831 8.57166V13.6947L0.41828 14.7047C0.218546 14.9045 0.0825326 15.159 0.0274344 15.4361C-0.0276638 15.7132 0.000627092 16.0004 0.10873 16.2614C0.216834 16.5224 0.399896 16.7455 0.634774 16.9025C0.869653 17.0595 1.1458 17.1433 1.42831 17.1434H18.5717C18.8542 17.1433 19.1303 17.0595 19.3652 16.9025C19.6001 16.7455 19.7832 16.5224 19.8913 16.2614C19.9994 16.0004 20.0277 15.7132 19.9726 15.4361C19.9175 15.159 19.7815 14.9045 19.5817 14.7047L18.5717 13.6947V8.57166C18.5717 6.29831 17.6686 4.11806 16.0611 2.51056C14.4536 0.903056 12.2734 -3.05176e-05 10 -3.05176e-05ZM10 22.8578C8.86332 22.8578 7.7732 22.4063 6.96945 21.6025C6.1657 20.7988 5.71416 19.7086 5.71416 18.572H14.2858C14.2858 19.7086 13.8343 20.7988 13.0306 21.6025C12.2268 22.4063 11.1367 22.8578 10 22.8578Z" fill="#29667E"/>
</svg>
