<svg width="28" height="28" viewBox="0 0 28 28" fill="none" xmlns="http://www.w3.org/2000/svg">
<path d="M5.60005 5.60001C4.85744 5.60001 4.14525 5.89501 3.62015 6.42011C3.09505 6.94521 2.80005 7.6574 2.80005 8.40001V9.80001H25.2V8.40001C25.2 7.6574 24.905 6.94521 24.3799 6.42011C23.8548 5.89501 23.1427 5.60001 22.4 5.60001H5.60005Z" fill="#D4D8E2"/>
<path fill-rule="evenodd" clip-rule="evenodd" d="M25.2 12.6H2.80005V19.6C2.80005 20.3426 3.09505 21.0548 3.62015 21.5799C4.14525 22.105 4.85744 22.4 5.60005 22.4H22.4C23.1427 22.4 23.8548 22.105 24.3799 21.5799C24.905 21.0548 25.2 20.3426 25.2 19.6V12.6ZM5.60005 18.2C5.60005 17.8287 5.74755 17.4726 6.0101 17.2101C6.27265 16.9475 6.62875 16.8 7.00005 16.8H8.40005C8.77135 16.8 9.12745 16.9475 9.39 17.2101C9.65255 17.4726 9.80005 17.8287 9.80005 18.2C9.80005 18.5713 9.65255 18.9274 9.39 19.19C9.12745 19.4525 8.77135 19.6 8.40005 19.6H7.00005C6.62875 19.6 6.27265 19.4525 6.0101 19.19C5.74755 18.9274 5.60005 18.5713 5.60005 18.2ZM12.6 16.8C12.2287 16.8 11.8727 16.9475 11.6101 17.2101C11.3475 17.4726 11.2 17.8287 11.2 18.2C11.2 18.5713 11.3475 18.9274 11.6101 19.19C11.8727 19.4525 12.2287 19.6 12.6 19.6H14C14.3714 19.6 14.7274 19.4525 14.99 19.19C15.2525 18.9274 15.4 18.5713 15.4 18.2C15.4 17.8287 15.2525 17.4726 14.99 17.2101C14.7274 16.9475 14.3714 16.8 14 16.8H12.6Z" fill="#D4D8E2"/>
</svg>
