<svg width="24" height="24" viewBox="0 0 24 24" fill="none" xmlns="http://www.w3.org/2000/svg">
<path d="M11.0102 1.21019C11.2727 0.947734 11.6288 0.800293 12 0.800293C12.3712 0.800293 12.7273 0.947734 12.9898 1.21019L22.7898 11.0102C23.0448 11.2742 23.1859 11.6279 23.1827 11.995C23.1796 12.362 23.0323 12.7132 22.7727 12.9727C22.5132 13.2323 22.162 13.3795 21.795 13.3827C21.4279 13.3859 21.0742 13.2448 20.8102 12.9898L20.4 12.5796V21.8C20.4 22.1713 20.2525 22.5274 19.99 22.7899C19.7274 23.0525 19.3713 23.2 19 23.2H16.2C15.8287 23.2 15.4726 23.0525 15.2101 22.7899C14.9475 22.5274 14.8 22.1713 14.8 21.8V19C14.8 18.6287 14.6525 18.2726 14.39 18.01C14.1274 17.7475 13.7713 17.6 13.4 17.6H10.6C10.2287 17.6 9.8726 17.7475 9.61005 18.01C9.3475 18.2726 9.2 18.6287 9.2 19V21.8C9.2 22.1713 9.0525 22.5274 8.78995 22.7899C8.5274 23.0525 8.17131 23.2 7.8 23.2H5C4.6287 23.2 4.2726 23.0525 4.01005 22.7899C3.7475 22.5274 3.6 22.1713 3.6 21.8V12.5796L3.1898 12.9898C2.92576 13.2448 2.57212 13.3859 2.20504 13.3827C1.83797 13.3795 1.48683 13.2323 1.22726 12.9727C0.967686 12.7132 0.820448 12.362 0.817257 11.995C0.814068 11.6279 0.955179 11.2742 1.2102 11.0102L11.0102 1.21019Z" fill="#29667E"/>
</svg>
