<svg width="20" height="22" viewBox="0 0 20 22" fill="none" xmlns="http://www.w3.org/2000/svg">
<path fill-rule="evenodd" clip-rule="evenodd" d="M9.99995 8.60001C11.1139 8.60001 12.1821 8.15751 12.9698 7.36986C13.7575 6.58221 14.2 5.51392 14.2 4.40001C14.2 3.2861 13.7575 2.21782 12.9698 1.43016C12.1821 0.642511 11.1139 0.200012 9.99995 0.200012C8.88604 0.200012 7.81776 0.642511 7.0301 1.43016C6.24245 2.21782 5.79995 3.2861 5.79995 4.40001C5.79995 5.51392 6.24245 6.58221 7.0301 7.36986C7.81776 8.15751 8.88604 8.60001 9.99995 8.60001ZM0.199951 21.2C0.199951 19.9131 0.453436 18.6387 0.945932 17.4497C1.43843 16.2607 2.16029 15.1804 3.0703 14.2704C3.98032 13.3604 5.06066 12.6385 6.24965 12.146C7.43864 11.6535 8.713 11.4 9.99995 11.4C11.2869 11.4 12.5613 11.6535 13.7502 12.146C14.9392 12.6385 16.0196 13.3604 16.9296 14.2704C17.8396 15.1804 18.5615 16.2607 19.054 17.4497C19.5465 18.6387 19.8 19.9131 19.8 21.2H0.199951Z" fill="#D4D8E2"/>
</svg>
