<svg width="24" height="20" viewBox="0 0 24 20" fill="none" xmlns="http://www.w3.org/2000/svg">
<path d="M0.799988 11.4C0.799988 11.0287 0.947487 10.6726 1.21004 10.4101C1.47259 10.1475 1.82868 10 2.19999 10H4.99999C5.37129 10 5.72739 10.1475 5.98994 10.4101C6.25249 10.6726 6.39999 11.0287 6.39999 11.4V18.4C6.39999 18.7713 6.25249 19.1274 5.98994 19.39C5.72739 19.6525 5.37129 19.8 4.99999 19.8H2.19999C1.82868 19.8 1.47259 19.6525 1.21004 19.39C0.947487 19.1274 0.799988 18.7713 0.799988 18.4V11.4ZM9.19999 5.80001C9.19999 5.42871 9.34749 5.07261 9.61004 4.81006C9.87259 4.54751 10.2287 4.40001 10.6 4.40001H13.4C13.7713 4.40001 14.1274 4.54751 14.3899 4.81006C14.6525 5.07261 14.8 5.42871 14.8 5.80001V18.4C14.8 18.7713 14.6525 19.1274 14.3899 19.39C14.1274 19.6525 13.7713 19.8 13.4 19.8H10.6C10.2287 19.8 9.87259 19.6525 9.61004 19.39C9.34749 19.1274 9.19999 18.7713 9.19999 18.4V5.80001ZM17.6 1.60001C17.6 1.22871 17.7475 0.872614 18.01 0.610063C18.2726 0.347512 18.6287 0.200012 19 0.200012H21.8C22.1713 0.200012 22.5274 0.347512 22.7899 0.610063C23.0525 0.872614 23.2 1.22871 23.2 1.60001V18.4C23.2 18.7713 23.0525 19.1274 22.7899 19.39C22.5274 19.6525 22.1713 19.8 21.8 19.8H19C18.6287 19.8 18.2726 19.6525 18.01 19.39C17.7475 19.1274 17.6 18.7713 17.6 18.4V1.60001Z" fill="#D4D8E2"/>
</svg>
